<svg width="1110" height="250" viewBox="0 0 1110 250" fill="none" xmlns="http://www.w3.org/2000/svg">
<rect width="1110" height="250" fill="#2D2641"/>
<mask id="mask0_0_418" style="mask-type:alpha" maskUnits="userSpaceOnUse" x="0" y="0" width="1110" height="250">
<rect width="1110" height="250" fill="white"/>
</mask>
<g mask="url(#mask0_0_418)">
<path fill-rule="evenodd" clip-rule="evenodd" d="M1050.87 -183.487C967.784 -209.517 882.349 -252.933 794.882 -173.633C707.415 -94.3323 652.425 -24.8655 687.936 65.0158C723.447 154.897 868.399 98.9136 910.515 179.246C952.632 259.578 860.092 332.487 899.988 403.982C939.884 475.478 970.561 521.3 1098.77 475.841C1226.99 430.382 1215.16 314.714 1312.66 246.98C1410.16 179.246 1515.65 77.8456 1370.88 -103.09C1226.12 -284.025 1133.96 -157.457 1050.87 -183.487Z" stroke="#9E96C6"/>
<path fill-rule="evenodd" clip-rule="evenodd" d="M1060.98 -142.161C993.428 -163.299 923.963 -198.556 852.846 -134.159C781.73 -69.7621 737.019 -13.3508 765.892 59.6384C794.765 132.628 912.621 87.1654 946.865 152.4C981.108 217.635 905.867 276.841 938.305 334.9C970.744 392.959 995.686 430.169 1099.93 393.254C1204.18 356.338 1194.57 262.408 1273.84 207.404C1353.11 152.4 1438.88 70.057 1321.18 -76.8735C1203.47 -223.804 1128.54 -121.023 1060.98 -142.161Z" stroke="#9E96C6"/>
<path fill-rule="evenodd" clip-rule="evenodd" d="M1080.8 -113.491C1025.96 -130.722 969.557 -159.464 911.817 -106.967C854.078 -54.471 817.777 -8.48457 841.219 51.0161C864.661 110.517 960.348 73.4561 988.151 126.636C1015.95 179.815 954.865 228.08 981.201 275.409C1007.54 322.738 1027.79 353.072 1112.43 322.979C1197.06 292.885 1189.26 216.314 1253.62 171.475C1317.98 126.636 1387.62 59.5093 1292.05 -60.2682C1196.49 -180.046 1135.65 -96.2589 1080.8 -113.491Z" stroke="#9E96C6"/>
<path fill-rule="evenodd" clip-rule="evenodd" d="M1100.91 -80.1228C1056.7 -93.9593 1011.25 -117.038 964.716 -74.8848C918.182 -32.732 888.926 4.19353 907.818 51.9706C926.711 99.7476 1003.83 69.9891 1026.24 112.69C1048.64 155.392 999.41 194.147 1020.64 232.15C1041.86 270.154 1058.18 294.511 1126.39 270.347C1194.61 246.183 1188.32 184.699 1240.19 148.695C1292.06 112.69 1348.18 58.7903 1271.16 -37.387C1194.15 -133.564 1145.11 -66.2862 1100.91 -80.1228Z" stroke="#9E96C6"/>
<path fill-rule="evenodd" clip-rule="evenodd" d="M1106.26 -58.5595C1070.2 -69.877 1033.12 -88.7536 995.159 -54.2751C957.2 -19.7966 933.335 10.4063 948.746 49.4852C964.157 88.564 1027.06 64.2233 1045.34 99.1504C1063.62 134.078 1023.46 165.777 1040.77 196.862C1058.09 227.947 1071.4 247.869 1127.04 228.105C1182.69 208.34 1177.56 158.049 1219.87 128.6C1262.18 99.1504 1307.96 55.0633 1245.14 -23.6041C1182.31 -102.272 1142.31 -47.2421 1106.26 -58.5595Z" stroke="#9E96C6"/>
<path fill-rule="evenodd" clip-rule="evenodd" d="M1116.95 -42.4982C1087.63 -51.6617 1057.48 -66.9457 1026.61 -39.0292C995.735 -11.1128 976.327 13.3419 988.86 44.9831C1001.39 76.6244 1052.55 56.9163 1067.42 85.196C1082.28 113.476 1049.62 139.142 1063.7 164.311C1077.78 189.48 1088.61 205.61 1133.86 189.607C1179.11 173.604 1174.94 132.885 1209.35 109.041C1243.76 85.196 1280.99 49.4996 1229.9 -14.1956C1178.81 -77.8909 1146.28 -33.3347 1116.95 -42.4982Z" stroke="#9E96C6"/>
</g>
</svg>
